<?xml version="1.0" encoding="UTF-8"?>
<svg version="1.1" xmlns="http://www.w3.org/2000/svg" width="1024" height="1024">
<path d="M0 0 C337.92 0 675.84 0 1024 0 C1024 337.92 1024 675.84 1024 1024 C686.08 1024 348.16 1024 0 1024 C0 686.08 0 348.16 0 0 Z " fill="#FCFCFC" transform="translate(0,0)"/>
<path d="M0 0 C15.8244638 12.21828914 25.7115413 29.56921019 29.125 49.1875 C30.70139096 72.42024131 27.78956719 93.64753169 12.21484375 111.8828125 C11.52519531 112.64335937 10.83554687 113.40390625 10.125 114.1875 C9.07505859 115.35925781 9.07505859 115.35925781 8.00390625 116.5546875 C-4.99279811 130.31590389 -23.86038777 138.83106388 -42.81640625 139.390625 C-66.68002385 139.72989804 -85.72527 133.43858857 -103.5 117 C-120.15146295 99.3502479 -125.8941273 77.85960938 -125.28515625 54.1171875 C-124.26305125 34.09161926 -113.969219 16.76048663 -99.75 3.0625 C-70.74024642 -22.39096147 -30.87495132 -21.14782179 0 0 Z " fill="#FEC923" transform="translate(322.875,354.8125)"/>
<path d="M0 0 C1.03794708 -0.00524185 2.07589417 -0.0104837 3.14529419 -0.0158844 C5.33562325 -0.0222926 7.52598678 -0.02098322 9.71630859 -0.01245117 C13.05238739 -0.00395192 16.38674685 -0.03270366 19.72265625 -0.06445312 C21.85677032 -0.06606567 23.99088741 -0.06548658 26.125 -0.0625 C27.60974319 -0.07935097 27.60974319 -0.07935097 29.1244812 -0.09654236 C36.90779332 -0.01895163 42.17051673 1.7448864 48.0078125 6.93359375 C53.39190796 13.08684571 55.44882236 17.93377308 55.43582153 26.26730347 C55.43753038 26.92988195 55.43923923 27.59246042 55.44099987 28.27511704 C55.44427786 30.48153789 55.43331934 32.68765042 55.42236328 34.89404297 C55.4217988 36.48111463 55.42211645 38.06818682 55.42324829 39.65525818 C55.42382136 43.95439851 55.41207437 48.2534269 55.39810038 52.55254126 C55.38558549 57.04886652 55.38442192 61.54519443 55.38204956 66.04153442 C55.37583702 74.55181626 55.35942925 83.06204662 55.33935058 91.5723058 C55.31698455 101.26270074 55.30599638 110.95309816 55.29595971 120.64351249 C55.27506284 140.57356829 55.23989124 160.50357777 55.1953125 180.43359375 C47.43209328 180.57341064 39.66917606 180.6796237 31.90500927 180.74446678 C28.29860237 180.77560942 24.69306487 180.81775998 21.0871582 180.88623047 C17.59870847 180.95204629 14.11108788 180.98742767 10.62206459 181.00285721 C8.66176081 181.01912884 6.70178475 181.06586663 4.74198914 181.1133728 C-4.76469958 181.11690294 -11.65052525 178.9164767 -18.88484192 172.62435913 C-27.21644192 163.91855822 -28.39755158 154.29959569 -28.32226562 142.66552734 C-28.32769758 141.30758416 -28.33482622 139.94964689 -28.34350586 138.59172058 C-28.36161161 134.932652 -28.35472611 131.27403874 -28.34198952 127.61496305 C-28.33179928 123.77101717 -28.34127142 119.92710796 -28.34753418 116.0831604 C-28.35479142 109.63251812 -28.34527184 103.18205963 -28.32617188 96.73144531 C-28.30438821 89.28882247 -28.31147285 81.84663775 -28.3334775 74.40402544 C-28.35166452 67.99437202 -28.35417431 61.58485002 -28.34372282 55.17517912 C-28.33750833 51.35538469 -28.33659589 47.53579584 -28.34986877 43.71601486 C-28.36147574 40.12557648 -28.35331443 36.53570009 -28.33029175 32.94532204 C-28.32253423 31.00988652 -28.33431779 29.07440311 -28.34680176 27.13899231 C-28.27015653 19.21500468 -27.41355656 13.62746214 -22.09375 7.4453125 C-21.54460937 7.00832031 -20.99546875 6.57132812 -20.4296875 6.12109375 C-19.88570313 5.67121094 -19.34171875 5.22132813 -18.78125 4.7578125 C-12.40616697 0.48675885 -7.49938682 -0.02215111 0 0 Z " fill="#FE375E" transform="translate(137.8046875,451.56640625)"/>
<path d="M0 0 C0.78890625 -0.00322266 1.5778125 -0.00644531 2.390625 -0.00976562 C9.09434314 0.2445913 14.33597173 2.29589728 19.4296875 6.6796875 C19.96851563 7.32164062 20.50734375 7.96359375 21.0625 8.625 C21.61679687 9.26179688 22.17109375 9.89859375 22.7421875 10.5546875 C26.45698637 16.19716578 26.48032066 21.84700491 26.4621582 28.36035156 C26.46726913 29.31076828 26.47238007 30.261185 26.47764587 31.24040222 C26.49151436 34.37387439 26.49058674 37.50712584 26.48828125 40.640625 C26.49217049 42.82769858 26.49650563 45.01477141 26.50126648 47.20184326 C26.5087234 51.78481494 26.5084418 56.36770959 26.50317383 60.95068359 C26.49738867 66.80576823 26.51428989 72.66053556 26.5375185 78.51556778 C26.55229809 83.03334376 26.55312164 87.55104415 26.55000877 92.06884003 C26.55052015 94.22646461 26.55572316 96.38409363 26.56582069 98.54169464 C26.57824574 101.56869191 26.57135636 104.59508176 26.55981445 107.62207031 C26.56745819 108.5024144 26.57510193 109.38275848 26.58297729 110.28977966 C26.49069558 121.31568908 23.22337698 129.63086954 15.48828125 137.47265625 C7.75164387 144.54863696 0.8787355 145.18072556 -9.30859375 145.04296875 C-10.49727554 145.03872391 -11.68595734 145.03447906 -12.91065979 145.03010559 C-16.69067457 145.01337251 -20.47014755 144.9757289 -24.25 144.9375 C-26.81965373 144.92244628 -29.38931586 144.90875908 -31.95898438 144.89648438 C-38.24367305 144.86348648 -44.52804781 144.81334004 -50.8125 144.75 C-50.90608322 129.7637131 -50.97654756 114.77744892 -51.01974869 99.7909317 C-51.04034399 92.83187573 -51.06840609 85.87300168 -51.11425781 78.9140625 C-51.15849641 72.19672651 -51.1816464 65.47961843 -51.19200897 58.76213074 C-51.19939265 56.20091276 -51.21381119 53.63970497 -51.23542023 51.0785675 C-51.26450906 47.48769901 -51.26845353 43.89760823 -51.26660156 40.30664062 C-51.28098267 39.25071716 -51.29536377 38.1947937 -51.31018066 37.10687256 C-51.26833597 29.59552079 -49.9342394 23.98323009 -44.625 18.484375 C-40.85554806 16.15987964 -36.93141414 14.60125641 -32.8125 13 C-26.7471387 10.59500837 -21.5890581 8.08502419 -16.3125 4.25 C-10.83619962 0.6788054 -6.38491748 0.02459521 0 0 Z " fill="#00BEBE" transform="translate(341.8125,487.25)"/>
<path d="M0 0 C2.91717423 0.02679883 5.83050183 0.000177 8.74755859 -0.03173828 C27.48064252 -0.0676187 27.48064252 -0.0676187 34.42333984 5.65185547 C38.49795749 10.01997094 40.55040863 14.21252835 40.54359436 20.18864441 C40.54565636 21.58316582 40.54565636 21.58316582 40.54776001 23.00585938 C40.5423671 24.53255249 40.5423671 24.53255249 40.53686523 26.09008789 C40.53701126 27.16341873 40.53715729 28.23674957 40.53730774 29.34260559 C40.53660994 32.89753221 40.52882371 36.45240673 40.52099609 40.00732422 C40.51913144 42.46926342 40.51770776 44.93120299 40.51670837 47.3931427 C40.51288691 53.87866232 40.50305975 60.36415962 40.49200439 66.84967041 C40.47998567 74.62816646 40.47538627 82.40667038 40.46955109 90.18517303 C40.45984783 102.00741605 40.44068865 113.82961006 40.42333984 125.65185547 C14.68333984 125.65185547 -11.05666016 125.65185547 -37.57666016 125.65185547 C-37.73709539 99.80841265 -37.73709539 99.80841265 -37.77197266 88.76708984 C-37.79585629 81.24182817 -37.82406913 73.71676174 -37.87841797 66.19165039 C-37.92197416 60.12269899 -37.94581821 54.05395705 -37.95616913 47.98486137 C-37.96354289 45.67287335 -37.97794207 43.3608964 -37.99958038 41.04899788 C-38.02874346 37.8031679 -38.03261066 34.5581964 -38.03076172 31.31225586 C-38.04514282 30.3627858 -38.05952393 29.41331573 -38.07434082 28.43507385 C-38.02605297 20.56786891 -35.72465954 14.937031 -31.45166016 8.40185547 C-22.2044765 -0.44327672 -12.12813916 -0.13269299 0 0 Z " fill="#FEC923" transform="translate(239.57666015625,506.34814453125)"/>
<path d="M0 0 C12.7153125 -0.0928125 12.7153125 -0.0928125 25.6875 -0.1875 C28.33612061 -0.21481201 30.98474121 -0.24212402 33.71362305 -0.27026367 C35.85465034 -0.27903999 37.9956827 -0.2866812 40.13671875 -0.29296875 C41.21457642 -0.30831665 42.29243408 -0.32366455 43.4029541 -0.33947754 C59.54007792 -0.34492253 73.96915216 4.2340832 85.74609375 15.51953125 C97.10569712 28.02100116 100.74452179 42.48553649 100.13183594 58.99023438 C99.26798302 72.15919224 92.64305414 84.17443661 83 93 C73.45481425 100.32571247 62.42489746 105.14091399 50.29174805 105.11352539 C49.15539917 105.11340454 48.01905029 105.11328369 46.8482666 105.11315918 C45.66470581 105.10804321 44.48114502 105.10292725 43.26171875 105.09765625 C42.16589478 105.09664917 41.0700708 105.09564209 39.94104004 105.09460449 C35.85651601 105.0893815 31.77200693 105.07542023 27.6875 105.0625 C18.550625 105.041875 9.41375 105.02125 0 105 C0 70.35 0 35.7 0 0 Z " fill="#062544" transform="translate(433,376)"/>
<path d="M0 0 C9.69375 -0.061875 19.3875 -0.12375 29.375 -0.1875 C32.41638184 -0.21481201 35.45776367 -0.24212402 38.59130859 -0.27026367 C41.0270142 -0.27903316 43.46272423 -0.286676 45.8984375 -0.29296875 C47.14278564 -0.30831665 48.38713379 -0.32366455 49.66918945 -0.33947754 C61.0092461 -0.34285591 71.35610108 1.56280015 79.7578125 9.703125 C85.67412962 16.27681068 86.40672206 21.79779255 86.2421875 30.5546875 C85.71188748 38.09863298 83.26819015 42.29835213 77.9140625 47.5546875 C75.72530855 49.20742008 73.57597076 50.08823028 71 51 C71.66386719 51.43570313 72.32773437 51.87140625 73.01171875 52.3203125 C80.34999706 57.26963305 85.58423497 61.16311061 88 70 C88.94280374 79.48758294 88.95058484 88.07092121 83 96 C78.3410894 101.54575906 72.93257949 103.45075796 66 105 C64.87813042 105.2607859 64.87813042 105.2607859 63.7335968 105.52684021 C60.71353983 106.04958355 57.8978152 106.11987125 54.83276367 106.11352539 C53.59490112 106.11340454 52.35703857 106.11328369 51.08166504 106.11315918 C49.14438538 106.10548523 49.14438538 106.10548523 47.16796875 106.09765625 C45.97385376 106.09664917 44.77973877 106.09564209 43.54943848 106.09460449 C39.09544919 106.08937863 34.64147362 106.07541736 30.1875 106.0625 C15.2446875 106.0315625 15.2446875 106.0315625 0 106 C0 71.02 0 36.04 0 0 Z " fill="#062645" transform="translate(432,505)"/>
<path d="M0 0 C3.70522252 1.98417866 6.79341134 4.46795662 9.875 7.3125 C10.205 4.6725 10.535 2.0325 10.875 -0.6875 C17.475 -0.6875 24.075 -0.6875 30.875 -0.6875 C30.96566559 9.68359687 31.03892542 20.05442697 31.08224869 30.42583179 C31.10305031 35.24261612 31.13123095 40.0591133 31.17675781 44.87573242 C31.22048214 49.53121925 31.24419284 54.18643132 31.25450897 58.84210777 C31.26185292 60.61098233 31.27619299 62.37984326 31.29792023 64.14859962 C31.44544597 76.66544496 31.12533468 88.03030539 21.91015625 97.59765625 C11.48364578 106.38314204 -2.88277915 108.3993253 -16.0859375 107.52392578 C-26.33136936 106.46160011 -35.43834549 102.73037184 -44.125 97.3125 C-42.75212658 93.61373909 -41.06144547 90.3610524 -39 87 C-38.19175781 85.67548828 -38.19175781 85.67548828 -37.3671875 84.32421875 C-36.95726562 83.66035156 -36.54734375 82.99648438 -36.125 82.3125 C-32.30449217 83.7941926 -28.71393084 85.50840758 -25.08984375 87.41015625 C-17.66655035 90.81926316 -7.70314534 90.3936468 0 88.125 C4.67278903 86.27842474 6.83290335 83.51248181 8.96484375 79.01171875 C9.97867987 76.00502023 10.076196 73.66213392 10 70.5 C9.98195313 69.52417969 9.96390625 68.54835938 9.9453125 67.54296875 C9.92210937 66.80691406 9.89890625 66.07085938 9.875 65.3125 C9.3903125 65.78300781 8.905625 66.25351562 8.40625 66.73828125 C0.94602018 73.66768703 -4.86823566 75.88560456 -15.09375 75.6015625 C-25.44821922 74.61415178 -32.83527442 70.44220837 -39.515625 62.53515625 C-47.29313198 51.79389054 -47.18223803 39.03806528 -46.125 26.3125 C-44.55431203 16.92780369 -39.21836032 9.44985002 -32.125 3.3125 C-23.18375545 -2.51403024 -10.04543138 -4.26586812 0 0 Z " fill="#062544" transform="translate(756.125,533.6875)"/>
<path d="M0 0 C6.6 0 13.2 0 20 0 C20 34.98 20 69.96 20 106 C13.4 106 6.8 106 0 106 C-0.495 102.04 -0.495 102.04 -1 98 C-1.4125 98.39832031 -1.825 98.79664063 -2.25 99.20703125 C-10.05976635 106.37179458 -16.85183606 107.59296766 -27.30859375 107.34375 C-36.30118697 106.50634449 -42.94823994 102.61911257 -49 96 C-57.43279847 85.23939778 -58.75056129 72.26935715 -58 59 C-56.61901184 48.64892361 -52.35805262 39.12991017 -44.0625 32.5 C-35.05850789 26.58846059 -26.48832134 26.04361811 -16 27 C-9.59368351 28.64809802 -6.18322591 31.68064508 -1 36 C-0.67 24.12 -0.34 12.24 0 0 Z " fill="#062543" transform="translate(677,505)"/>
<path d="M0 0 C8.17691788 6.85003466 12.56736525 16.02603904 13.92578125 26.61328125 C14.78891226 37.68459638 12.6103343 48.55679003 5.92578125 57.61328125 C-1.77023573 65.8831886 -10.99264573 71.31219604 -22.45703125 71.984375 C-35.22561614 72.31774793 -45.44893561 70.8530561 -55.57421875 62.36328125 C-64.34100845 53.75278764 -68.11924771 43.25970964 -68.44921875 31.05078125 C-68.14660327 20.38358551 -64.65560662 10.86498286 -57.48046875 2.828125 C-41.78399006 -11.64669379 -17.09037629 -12.59126443 0 0 Z " fill="#072645" transform="translate(698.07421875,411.38671875)"/>
<path d="M0 0 C7.80450903 6.40410318 12.29521999 13.43087996 14.75 23.25 C14.75 28.86 14.75 34.47 14.75 40.25 C-3.4 40.25 -21.55 40.25 -40.25 40.25 C-37.20805645 49.79754158 -37.20805645 49.79754158 -30.25 55.25 C-23.84963202 58.45018399 -16.47285243 58.25106478 -9.75390625 56.1640625 C-6.55112316 54.9286523 -3.39947219 53.61447304 -0.25 52.25 C0.74 51.92 1.73 51.59 2.75 51.25 C6.71 57.19 6.71 57.19 10.75 63.25 C7.53646767 66.46353233 5.85272431 67.97317749 2 69.875 C1.20078125 70.27976562 0.4015625 70.68453125 -0.421875 71.1015625 C-12.36891949 75.95298664 -27.65775618 76.36924823 -39.671875 71.5703125 C-50.24641077 66.15486842 -56.81191306 57.67744112 -60.5546875 46.46484375 C-63.4126863 33.25061335 -61.39104052 20.37764891 -54.125 8.9375 C-42.01394337 -7.12449835 -16.74331225 -11.7706744 0 0 Z " fill="#062543" transform="translate(859.25,537.75)"/>
<path d="M0 0 C6.93 0 13.86 0 21 0 C21.01981934 1.55428711 21.03963867 3.10857422 21.06005859 4.70996094 C21.13608789 10.47249651 21.22480978 16.2347787 21.31738281 21.99707031 C21.35568354 24.49181112 21.39053446 26.98660736 21.421875 29.48144531 C21.46750124 33.06595685 21.5255006 36.6500864 21.5859375 40.234375 C21.59748871 41.35116638 21.60903992 42.46795776 21.62094116 43.61859131 C21.64081085 44.65936829 21.66068054 45.70014526 21.68115234 46.77246094 C21.69447601 47.68735291 21.70779968 48.60224487 21.7215271 49.54486084 C22.01969735 52.17366044 22.57561821 53.78069836 24 56 C28.49567076 58.99711384 32.70329543 59.85791694 38 59 C43.06701399 57.44326679 48.06190925 55.63826823 52 52 C52.61562739 49.61156655 52.61562739 49.61156655 52.54589844 46.88598633 C52.56561707 45.84513382 52.58533569 44.80428131 52.60565186 43.73188782 C52.60688049 42.60993515 52.60810913 41.48798248 52.609375 40.33203125 C52.62591125 39.18208176 52.64244751 38.03213226 52.65948486 36.84733582 C52.7081282 33.16900377 52.72937287 29.49108562 52.75 25.8125 C52.77814588 23.32094253 52.80807134 20.82940449 52.83984375 18.33789062 C52.91389208 12.22529446 52.96336726 6.1129303 53 0 C59.93 0 66.86 0 74 0 C74 25.08 74 50.16 74 76 C67.07 76 60.14 76 53 76 C52.505 72.04 52.505 72.04 52 68 C51.05125 68.9075 50.1025 69.815 49.125 70.75 C40.33409789 78.11063629 30.98943438 79.04322426 19.90283203 78.21875 C12.51054671 77.36893121 8.12419105 73.70059191 3.41015625 68.1953125 C0.47415198 63.62458009 -0.24965495 59.1682233 -0.22705078 53.81103516 C-0.22689972 52.61024323 -0.22674866 51.40945129 -0.22659302 50.17227173 C-0.21627045 48.89081268 -0.20594788 47.60935364 -0.1953125 46.2890625 C-0.1915779 44.95242526 -0.18873304 43.61578526 -0.18673706 42.27914429 C-0.17913577 38.77744868 -0.15951788 35.2759215 -0.1373291 31.77429199 C-0.11679474 28.19460325 -0.10771918 24.61488704 -0.09765625 21.03515625 C-0.07626827 14.02336174 -0.0411151 7.01170632 0 0 Z " fill="#052443" transform="translate(544,405)"/>
<path d="M0 0 C6.93 0 13.86 0 21 0 C21.01981934 1.58458008 21.03963867 3.16916016 21.06005859 4.80175781 C21.13608277 10.67610674 21.22480545 16.55020694 21.31738281 22.42431641 C21.35568566 24.96756076 21.3905362 27.51085952 21.421875 30.05419922 C21.46749662 33.70820577 21.52549678 37.36183727 21.5859375 41.015625 C21.59748871 42.15429016 21.60903992 43.29295532 21.62094116 44.46612549 C21.64081085 45.52692322 21.66068054 46.58772095 21.68115234 47.68066406 C21.69447601 48.61332092 21.70779968 49.54597778 21.7215271 50.50689697 C22.01751138 53.15677534 22.56157315 54.76602806 24 57 C28.49646063 59.99764042 32.70279346 60.85649034 38 60 C43.13497317 58.4434851 47.2337624 56.85459508 51 53 C51.66 53 52.32 53 53 53 C53 35.51 53 18.02 53 0 C59.6 0 66.2 0 73 0 C73 25.74 73 51.48 73 78 C66.4 78 59.8 78 53 78 C52.505 73.545 52.505 73.545 52 69 C50.6078125 70.36125 50.6078125 70.36125 49.1875 71.75 C41.15111883 78.50568298 31.97140812 79.84301702 21.74609375 79.375 C13.52317112 78.55185029 8.83356559 75.49356317 3.41015625 69.390625 C-0.93251574 62.02853287 -0.26352956 53.56829521 -0.1953125 45.3125 C-0.1924826 44.01425293 -0.18965271 42.71600586 -0.18673706 41.37841797 C-0.17915637 37.95237308 -0.15955685 34.52650188 -0.1373291 31.1005249 C-0.11674969 27.59438424 -0.10770966 24.0882151 -0.09765625 20.58203125 C-0.07630474 13.72127629 -0.04116905 6.8606644 0 0 Z " fill="#062545" transform="translate(533,533)"/>
<path d="M0 0 C34.9047619 0 34.9047619 0 45.4921875 10.4765625 C52.1438724 17.83671089 53.32756989 26.36555416 53.2109375 35.87109375 C52.65087245 44.17872532 49.87623853 51.04711488 44 57 C30.86563913 67.94530073 17.62988477 65 0 65 C0 43.55 0 22.1 0 0 Z " fill="#FAFAFB" transform="translate(456,396)"/>
<path d="M0 0 C2.76223278 2.76223278 2.57856291 5.20706617 3 9 C3.72445312 9.23074219 4.44890625 9.46148437 5.1953125 9.69921875 C12.50115194 12.16372192 17.5464009 14.23781472 21.875 20.875 C23 24 23 24 23 31 C18.38 31 13.76 31 9 31 C8.4121875 29.329375 8.4121875 29.329375 7.8125 27.625 C6.70903463 25.11942496 6.22868748 24.15938825 3.9375 22.5625 C-3.31267049 21.17416948 -9.5069459 21.34765707 -16 25 C-18.32749345 28.49124017 -18.50299316 29.89222251 -18 34 C-15.01929937 37.76062139 -12.02133325 38.96572793 -7.51171875 40.40234375 C-6.89029495 40.60678604 -6.26887115 40.81122833 -5.62861633 41.02186584 C-2.99092053 41.88924578 -0.34452287 42.72854624 2.30151367 43.57006836 C18.58242975 48.78585322 18.58242975 48.78585322 23.55859375 54.921875 C26.94275562 61.96093169 26.98955193 67.81858815 24.4375 75.1875 C21.30680966 82.22337202 16.72755646 85.44564685 9.75 88.375 C6.87609596 89.47279564 5.10326309 90 2 90 C2.020625 90.94875 2.04125 91.8975 2.0625 92.875 C2 96 2 96 1 98 C-2.55353929 99.1845131 -5.27013478 99.26641894 -9 99 C-10.9375 97.875 -10.9375 97.875 -12 96 C-12.1875 92.8125 -12.1875 92.8125 -12 90 C-13.4540625 89.9071875 -13.4540625 89.9071875 -14.9375 89.8125 C-21.10445768 88.91184898 -26.79399076 85.70714163 -30.9375 81.0625 C-33.93047514 76.6183854 -35 73.35009139 -35 68 C-30.05 67.67 -25.1 67.34 -20 67 C-19.46375 68.258125 -18.9275 69.51625 -18.375 70.8125 C-16.88909657 73.72755361 -16.03906077 74.97023942 -13.375 77 C-7.53216598 78.73121008 -1.73523247 78.95046229 4 76.6875 C7.20553478 75.18271507 7.20553478 75.18271507 9 72 C9.44128533 68.028432 9.52567391 65.81771497 7.33886719 62.41601562 C4.67803274 59.66741252 2.82901191 58.85578771 -0.796875 57.71875 C-1.9209375 57.35136719 -3.045 56.98398437 -4.203125 56.60546875 C-5.37359375 56.24066406 -6.5440625 55.87585938 -7.75 55.5 C-27.39520459 49.29509721 -27.39520459 49.29509721 -33 41 C-35.32639826 36.34720348 -34.40464912 30.06389467 -34 25 C-32.4375 21.5 -32.4375 21.5 -30 19 C-29.51402344 18.49210937 -29.02804688 17.98421875 -28.52734375 17.4609375 C-23.98463361 13.10079491 -18.89966311 11.01799342 -13 9 C-12.9175 7.906875 -12.835 6.81375 -12.75 5.6875 C-12 2 -12 2 -10.4375 0 C-6.64554213 -1.55567502 -3.99859368 -0.8384148 0 0 Z " fill="#FEFDFB" transform="translate(280,368)"/>
<path d="M0 0 C6.6 0 13.2 0 20 0 C20 6.93 20 13.86 20 21 C25.28 21 30.56 21 36 21 C36 26.94 36 32.88 36 39 C30.72 39 25.44 39 20 39 C20.09351182 44.35716279 20.19960044 49.71387239 20.31738281 55.07055664 C20.35567995 56.89307824 20.39053155 58.71567563 20.421875 60.53833008 C20.46750979 63.15733941 20.52550622 65.77582674 20.5859375 68.39453125 C20.59748871 69.21025101 20.60903992 70.02597076 20.62094116 70.8664093 C20.72197274 74.73364504 20.8077319 76.71159785 23 80 C25.89608399 80.36498034 25.89608399 80.36498034 29.125 80.1875 C30.22070312 80.16042969 31.31640625 80.13335938 32.4453125 80.10546875 C33.28835938 80.07066406 34.13140625 80.03585937 35 80 C38.44419134 91.52164009 38.44419134 91.52164009 38 97 C29.84653152 100.09206028 21.1403999 101.74734853 12.5703125 99.30859375 C7.12848306 96.8546367 3.75893559 93.1894599 0.87939453 87.96801758 C-0.45101732 83.47778526 -0.24434809 79.10637968 -0.1953125 74.44921875 C-0.1924826 73.43527542 -0.18965271 72.42133209 -0.18673706 71.37666321 C-0.17556625 68.14682073 -0.15046711 64.91725829 -0.125 61.6875 C-0.1149662 59.49414464 -0.10584105 57.30078492 -0.09765625 55.10742188 C-0.07563701 49.7381738 -0.04112825 44.36913434 0 39 C-4.29 39 -8.58 39 -13 39 C-13 33.06 -13 27.12 -13 21 C-8.71 21 -4.42 21 0 21 C0 14.07 0 7.14 0 0 Z " fill="#062646" transform="translate(891,512)"/>
<path d="M0 0 C4.45326241 3.09916549 7.15621062 7.1185458 8.82421875 12.26953125 C9.6755422 21.62303307 9.0088738 28.07972302 4.13671875 36.01953125 C-0.05355708 40.09655638 -4.90595482 41.40807651 -10.67578125 41.70703125 C-16.76146466 41.4757963 -21.33635188 39.15736666 -25.55078125 34.83203125 C-28.80070265 29.7071552 -29.51619469 25.34458666 -29.48828125 19.33203125 C-29.50439453 18.64173828 -29.52050781 17.95144531 -29.53710938 17.24023438 C-29.54243321 11.62358413 -28.30475609 7.63057443 -24.52734375 3.44140625 C-16.73477179 -2.97600595 -9.20102568 -5.11569797 0 0 Z " fill="#F9FAFA" transform="translate(681.17578125,423.73046875)"/>
<path d="M0 0 C3.46579368 1.69282986 6.46440167 3.20658917 9.203125 5.9453125 C9.71763177 10.16249386 9.74505031 14.39443722 9.79345703 18.63891602 C9.82786238 20.74176148 9.91556571 22.83828068 10.00390625 24.93945312 C10.23016074 34.73369026 10.23016074 34.73369026 7.48339844 37.97412109 C5.40668504 39.29691998 3.53963627 40.18519836 1.203125 40.9453125 C-0.281875 41.4403125 -0.281875 41.4403125 -1.796875 41.9453125 C-7.6604922 42.42285676 -12.97676766 42.80746861 -18.359375 40.2578125 C-23.67642063 35.21343588 -26.44719356 30.94167177 -27.09765625 23.5078125 C-27.10152344 22.3321875 -27.10539063 21.1565625 -27.109375 19.9453125 C-27.12613281 18.7696875 -27.14289062 17.5940625 -27.16015625 16.3828125 C-26.49099423 10.05095684 -23.54202338 6.02834715 -18.796875 1.9453125 C-12.93963523 -2.00491897 -6.56571918 -2.47589969 0 0 Z " fill="#F8F9F9" transform="translate(667.796875,551.0546875)"/>
<path d="M0 0 C4.01532372 1.71938221 7.88488946 3.88488946 11 7 C11.36618542 11.40793024 11.37175059 15.82891881 11.4375 20.25 C11.48326172 21.49136719 11.52902344 22.73273437 11.57617188 24.01171875 C11.6862325 32.90270326 11.6862325 32.90270326 9.80908203 35.90429688 C3.99680265 40.97723793 -2.38309194 41.51306554 -9.765625 41.37109375 C-15.36097074 40.72911568 -18.73106345 38.62446792 -22.37109375 34.4140625 C-26.32370947 28.15005557 -25.85903266 20.10443231 -25 13 C-23.40948313 9.03323188 -21.7683842 6.35652384 -18.4375 3.6875 C-17.83808594 3.19636719 -17.23867188 2.70523438 -16.62109375 2.19921875 C-11.80161729 -1.36603251 -5.71655111 -0.70495585 0 0 Z " fill="#F8F8F9" transform="translate(756,550)"/>
<path d="M0 0 C4.42971461 -0.06917426 8.85752753 -0.12881128 13.28735352 -0.16479492 C14.79165017 -0.17980722 16.29590361 -0.20022353 17.80004883 -0.22631836 C19.97227696 -0.26303816 22.14392251 -0.27980161 24.31640625 -0.29296875 C25.62037354 -0.3086792 26.92434082 -0.32438965 28.26782227 -0.34057617 C33.55509681 0.14190881 37.41931154 1.58143344 41.4375 5.1875 C43.50680345 8.9122462 43.83573448 11.82976938 43 16 C40.60681125 20.07728453 38.45141196 21.62687455 34 23 C31.31989051 23.16496802 28.7500642 23.23378795 26.07421875 23.1953125 C25.32662796 23.1924826 24.57903717 23.18965271 23.80879211 23.18673706 C21.4348612 23.17559469 19.06131575 23.15050162 16.6875 23.125 C15.0722711 23.11496249 13.45703624 23.10583799 11.84179688 23.09765625 C7.89426539 23.07738131 3.94756118 23.03822275 0 23 C0 15.41 0 7.82 0 0 Z " fill="#FAFAFB" transform="translate(455,568)"/>
<path d="M0 0 C4.14492657 -0.06921028 8.28781539 -0.12883443 12.43286133 -0.16479492 C13.84015734 -0.17979877 15.24740724 -0.20020863 16.65454102 -0.22631836 C18.68777907 -0.26307665 20.72039432 -0.27980984 22.75390625 -0.29296875 C23.97408447 -0.3086792 25.1942627 -0.32438965 26.45141602 -0.34057617 C31.21370915 0.11648602 34.99151972 1.54600814 38.91015625 4.3828125 C41.21650032 7.8051295 40.55176609 12.07493667 40 16 C38.03811718 19.76681501 36.79260375 20.7255005 32.78686523 22.11279297 C29.02317481 22.99457048 25.82870336 23.22958847 21.97265625 23.1953125 C20.04389648 23.18564453 20.04389648 23.18564453 18.07617188 23.17578125 C16.73827846 23.15907601 15.40038783 23.14214619 14.0625 23.125 C12.69727217 23.11495322 11.3320372 23.10583036 9.96679688 23.09765625 C6.64445474 23.0741768 3.32220423 23.03830857 0 23 C0 15.41 0 7.82 0 0 Z " fill="#F9FAFA" transform="translate(455,525)"/>
<path d="M0 0 C4.4951395 2.09256494 7.34108615 4.82170681 10 9 C10.66 11.64 11.32 14.28 12 17 C-0.21 17 -12.42 17 -25 17 C-23.87053246 7.96425966 -23.87053246 7.96425966 -21.1875 5.125 C-20.68605469 4.57070313 -20.18460938 4.01640625 -19.66796875 3.4453125 C-14.02859901 -1.44126081 -7.08696836 -0.66749353 0 0 Z " fill="#F1F3F5" transform="translate(844,548)"/>
<path d="M0 0 C6.93 0 13.86 0 21 0 C21.02505615 1.58458008 21.0501123 3.16916016 21.07592773 4.80175781 C21.17003954 10.67602748 21.27025124 16.55017995 21.37231445 22.42431641 C21.41564899 24.96758281 21.45732513 27.51087802 21.49731445 30.05419922 C21.55505258 33.70809619 21.61873725 37.36184831 21.68359375 41.015625 C21.70030624 42.15429016 21.71701874 43.29295532 21.73423767 44.46612549 C21.75418289 45.52692322 21.77412811 46.58772095 21.79467773 47.68066406 C21.81799416 49.07964935 21.81799416 49.07964935 21.84178162 50.50689697 C21.98753208 52.80353862 22.3564033 54.79701127 23 57 C20.85638358 55.28887167 20.06493629 54.42027182 19.63923645 51.66511536 C19.64589828 50.74800278 19.65256012 49.8308902 19.65942383 48.88598633 C19.65965042 47.84513382 19.65987701 46.80428131 19.66011047 45.73188782 C19.67559433 44.60993515 19.69107819 43.48798248 19.70703125 42.33203125 C19.71127609 41.18208176 19.71552094 40.03213226 19.71989441 38.84733582 C19.73670811 35.16882059 19.77436623 31.49085008 19.8125 27.8125 C19.82754331 25.32097144 19.84123233 22.82943432 19.85351562 20.33789062 C19.8866206 14.22505003 19.93842226 8.11261742 20 2 C14.06 2 8.12 2 2 2 C2 22.13 2 42.26 2 63 C-0.01066253 58.97867494 -0.24556567 57.4623673 -0.22705078 53.12988281 C-0.22682419 51.35849945 -0.22682419 51.35849945 -0.22659302 49.55133057 C-0.21627045 48.28142273 -0.20594788 47.01151489 -0.1953125 45.703125 C-0.1924826 44.39921814 -0.18965271 43.09531128 -0.18673706 41.75189209 C-0.17911721 38.2929105 -0.15948308 34.83409807 -0.1373291 31.37518311 C-0.11683503 27.84259326 -0.10772774 24.30997597 -0.09765625 20.77734375 C-0.07623546 13.8514862 -0.04106686 6.92576864 0 0 Z " fill="#01102A" transform="translate(533,533)"/>
<path d="M0 0 C6.6 0 13.2 0 20 0 C20 6.93 20 13.86 20 21 C19.67 21 19.34 21 19 21 C19 14.73 19 8.46 19 2 C13.39 2 7.78 2 2 2 C2.02320313 3.34835937 2.04640625 4.69671875 2.0703125 6.0859375 C2.08906798 7.84895281 2.10726842 9.61197409 2.125 11.375 C2.14175781 12.26445313 2.15851562 13.15390625 2.17578125 14.0703125 C2.18222656 14.92109375 2.18867187 15.771875 2.1953125 16.6484375 C2.20578613 17.43395996 2.21625977 18.21948242 2.22705078 19.02880859 C2 21 2 21 0 23 C-3.68024605 23.27629475 -7.30494557 23.0859315 -11 23 C-11 27.95 -11 32.9 -11 38 C-7.04 38 -3.08 38 1 38 C1 51.86 1 65.72 1 80 C0.67 80 0.34 80 0 80 C0 66.47 0 52.94 0 39 C-4.29 39 -8.58 39 -13 39 C-13 33.06 -13 27.12 -13 21 C-8.71 21 -4.42 21 0 21 C0 14.07 0 7.14 0 0 Z " fill="#040F2B" transform="translate(891,512)"/>
<path d="M0 0 C5.28 0 10.56 0 16 0 C16 5.94 16 11.88 16 18 C10.72 18 5.44 18 0 18 C0 17.67 0 17.34 0 17 C4.62 17 9.24 17 14 17 C14 12.05 14 7.1 14 2 C9.71 2 5.42 2 1 2 C0.67 1.34 0.34 0.68 0 0 Z " fill="#000E29" transform="translate(911,533)"/>
<path d="M0 0 C0.99 0 1.98 0 3 0 C3 5.28 3 10.56 3 16 C2.01 16.33 1.02 16.66 0 17 C0 11.39 0 5.78 0 0 Z " fill="#173251" transform="translate(530,421)"/>
<path d="M0 0 C2.29013653 3.4352048 2.17842973 4.985331 2 9 C1.01 9 0.02 9 -1 9 C-0.67 6.03 -0.34 3.06 0 0 Z " fill="#102239" transform="translate(927,600)"/>
<path d="M0 0 C0.99 0.33 1.98 0.66 3 1 C0.16569547 4.2542015 -1.68607774 5.5206753 -6 6 C-4 4 -2 2 0 0 Z " fill="#122139" transform="translate(579,603)"/>
<path d="M0 0 C4.455 2.97 4.455 2.97 9 6 C8.34 6.66 7.68 7.32 7 8 C5.8274869 7.04882866 4.66212985 6.08882991 3.5 5.125 C2.8503125 4.59132813 2.200625 4.05765625 1.53125 3.5078125 C1.0259375 3.01023437 0.520625 2.51265625 0 2 C0 1.34 0 0.68 0 0 Z " fill="#1D2A40" transform="translate(494,399)"/>
</svg>
