<svg version="1.1" id="Layer_1" xmlns="http://www.w3.org/2000/svg" xmlns:xlink="http://www.w3.org/1999/xlink" x="0px" y="0px" viewBox="0 0 500 500" style="width: 151px;" xml:space="preserve" data-imageid="team-work-3-81" imageName="Team Work 3" class="illustrations_image">
<style type="text/css">
	.st0_team-work-3-81{fill:#D1D3D4;}
	.st1_team-work-3-81{fill:#FFFFFF;}
	.st2_team-work-3-81{fill:#231F20;}
	.st3_team-work-3-81{fill:#68E1FD;}
	.st4_team-work-3-81{fill:none;}
</style>
<path id="Floor_team-work-3-81" class="st0_team-work-3-81" d="M480,377.3H20c-0.4,0-0.7-0.3-0.7-0.7c0-0.4,0.3-0.7,0.7-0.7h460c0.4,0,0.7,0.3,0.7,0.7&#xA;&#9;C480.7,377,480.4,377.3,480,377.3z"/>
<g id="Triangle_team-work-3-81">
	<polygon class="st1_team-work-3-81" points="334.7,377 183.1,377 258.9,319 &#9;"/>
	<path class="st0_team-work-3-81" d="M334.7,377.7H183.1c-0.3,0-0.6-0.2-0.7-0.5c-0.1-0.3,0-0.6,0.2-0.8l75.8-57.9c0.3-0.2,0.6-0.2,0.9,0l75.8,57.9&#xA;&#9;&#9;c0.2,0.2,0.3,0.5,0.2,0.8C335.3,377.5,335,377.7,334.7,377.7z M185.2,376.3h147.5l-73.7-56.3L185.2,376.3z"/>
</g>
<g id="Character_Female_RIght_Hand_team-work-3-81">
	<path class="st1_team-work-3-81" d="M342.4,204.6c2.3-2.4-6.1-0.6-6.9,15.5c-0.6,12.3-1.4,28.3-1.4,28.3l-33.5,7.6l-3.7,14c0,0,48.3-7,49-8.4&#xA;&#9;&#9;C356.2,242.1,342.4,204.6,342.4,204.6z"/>
	<path class="st2_team-work-3-81" d="M297,270.6c-0.2,0-0.4-0.1-0.5-0.2c-0.1-0.2-0.2-0.4-0.1-0.6l3.7-14c0.1-0.2,0.2-0.4,0.5-0.5l33-7.4l1.4-27.9&#xA;&#9;&#9;c0.6-11.6,5.2-16.5,7.3-17c0.4-0.2,0.9,0,1.1,0.4c0.2,0.4,0.1,0.9-0.2,1.2c2.3,6.9,4.2,13.9,5.5,21c2.9,15.8,2.2,28-2.1,36.2&#xA;&#9;&#9;c-0.6,1.1-17.2,4.1-49.5,8.8L297,270.6z M301.2,256.5l-3.4,12.7c18.4-2.7,45.4-6.9,47.6-8.1c9.9-19-3.5-56-3.7-56.4c0,0,0,0,0-0.1&#xA;&#9;&#9;c-1.6,1.2-5.1,5.4-5.6,15.4l-1.4,28.3c0,0.3-0.2,0.5-0.5,0.6L301.2,256.5z M345.9,261.6L345.9,261.6z"/>
</g>
<g id="Character_Male_Left_Hand_team-work-3-81">
	<path class="st1_team-work-3-81" d="M192.7,200.4c0,0,7.5,2.7,9.8,2.3s6.8-3.4,7-2.2s-3.1,3.1-3.1,3.1s13-0.3,12.9,1.9s-3.2,7.2-5.4,7.4&#xA;&#9;&#9;s-23.9-1.9-23.9-1.9"/>
	<path class="st2_team-work-3-81" d="M213.4,213.6c-4,0-22.6-1.9-23.4-2c-0.4,0-0.7-0.3-0.7-0.7c0-0.4,0.3-0.7,0.7-0.7c0,0,0.1,0,0.1,0&#xA;&#9;&#9;c6,0.6,21.9,2.1,23.7,1.9s4.7-4.7,4.8-6.8c-0.5-0.8-6-1.3-12.1-1.1c-0.4,0-0.7-0.3-0.7-0.7c0-0.3,0.1-0.5,0.4-0.6&#xA;&#9;&#9;c1-0.5,1.8-1.2,2.5-2c-0.8,0.3-1.6,0.6-2.4,1c-1.2,0.6-2.4,1.1-3.6,1.4c-2.5,0.5-9.4-2-10.2-2.3c-0.4-0.1-0.6-0.5-0.4-0.9&#xA;&#9;&#9;c0.1-0.4,0.5-0.6,0.9-0.4c2,0.7,7.7,2.6,9.4,2.2c1.1-0.3,2.3-0.7,3.3-1.3c2.1-1,3.2-1.4,3.9-1.1c0.3,0.1,0.5,0.4,0.5,0.7&#xA;&#9;&#9;c0.1,0.9-0.6,1.8-1.4,2.5c3.5,0,9.5,0.2,10.9,1.6c0.3,0.3,0.4,0.6,0.4,1c-0.1,2.3-3.3,7.8-6.1,8.1&#xA;&#9;&#9;C213.8,213.6,213.6,213.6,213.4,213.6z"/>
</g>
<g id="Square_team-work-3-81">
	<rect x="200.8" y="121.8" class="st1_team-work-3-81" width="116.2" height="87.3"/>
	<path class="st0_team-work-3-81" d="M317,209.8H200.8c-0.4,0-0.7-0.3-0.7-0.7v-87.3c0-0.4,0.3-0.7,0.7-0.7H317c0.4,0,0.7,0.3,0.7,0.7v0v87.3&#xA;&#9;&#9;C317.7,209.5,317.4,209.8,317,209.8L317,209.8z M201.6,208.4h114.7v-85.9H201.5L201.6,208.4z"/>
</g>
<g id="Round_team-work-3-81">
	<circle class="st1_team-work-3-81" cx="258.9" cy="264.1" r="55"/>
	<path class="st0_team-work-3-81" d="M258.9,319.8c-30.8,0-55.7-24.9-55.7-55.7c0-30.8,24.9-55.7,55.7-55.7c30.8,0,55.7,24.9,55.7,55.7c0,0,0,0,0,0&#xA;&#9;&#9;C314.5,294.8,289.6,319.7,258.9,319.8z M258.9,209.8c-30,0-54.3,24.3-54.3,54.3c0,30,24.3,54.3,54.3,54.3c30,0,54.3-24.3,54.3-54.3&#xA;&#9;&#9;c0,0,0,0,0,0C313.1,234.1,288.9,209.8,258.9,209.8z"/>
</g>
<g id="Character_Male_team-work-3-81">
	<path class="st2_team-work-3-81" d="M128,242.9l27.1,69.9l0.8,50.7h-13l-7.7-47.4l-26.9-36.5c0,0-15.8,29.1-20,35.6c-11.9,18.1-27,34-44.5,46.8&#xA;&#9;&#9;H30.5c0,0,42-72.2,44.2-91S86.4,231,86.4,231L128,242.9z"/>
	<path class="st2_team-work-3-81" d="M155.9,364.1h-13c-0.3,0-0.6-0.2-0.7-0.6l-7.7-47.2l-26.2-35.5c-2.8,5.1-15.8,28.9-19.5,34.6&#xA;&#9;&#9;c-12,18.2-27.1,34.1-44.7,47c-0.1,0.1-0.3,0.1-0.4,0.1H30.5c-0.3,0-0.5-0.1-0.6-0.4c-0.1-0.2-0.1-0.5,0-0.7&#xA;&#9;&#9;c0.4-0.7,42-72.3,44.1-90.7c2.1-18.7,11.7-39.9,11.8-40.1c0.1-0.3,0.5-0.5,0.8-0.4l41.6,11.8c0.2,0.1,0.4,0.2,0.5,0.4l27.1,69.9&#xA;&#9;&#9;c0,0.1,0,0.2,0.1,0.2l0.8,50.7C156.6,363.8,156.3,364.1,155.9,364.1L155.9,364.1z M143.5,362.7h11.7l-0.8-49.8l-27-69.4l-40.6-11.6&#xA;&#9;&#9;c-1.5,3.4-9.5,22.4-11.5,39.2c-2,17.7-38.2,80.9-43.6,90.2h11.8c17.3-12.8,32.3-28.5,44.1-46.5c4.1-6.4,19.8-35.2,20-35.5&#xA;&#9;&#9;c0.1-0.2,0.3-0.3,0.6-0.4c0.2,0,0.5,0.1,0.6,0.3l26.9,36.5c0.1,0.1,0.1,0.2,0.1,0.3L143.5,362.7z"/>
	<path class="st2_team-work-3-81" d="M42.7,361c0,0,0,5.6,0.5,7.2s4.3,5.9,4.3,7.2s-15,2-16.1,0s-0.6-4.1,0-6.8c0.5-2.4,0.8-4.8,0.9-7.2"/>
	<path class="st2_team-work-3-81" d="M38.6,377.4c-3.6,0-7.2-0.4-7.9-1.6c-1.3-2.2-0.7-4.5-0.1-7.1v-0.2c0.5-2.3,0.8-4.7,0.9-7.1&#xA;&#9;&#9;c0-0.4,0.3-0.7,0.7-0.7s0.7,0.3,0.7,0.7l0,0c-0.1,2.5-0.4,4.9-0.9,7.4v0.2c-0.6,2.5-1,4.4,0,6.1l0,0c0,0,0.3,0.4,2.4,0.7&#xA;&#9;&#9;c4.3,0.5,11,0,12.4-0.5c-0.6-1.1-1.2-2.2-2-3.2c-0.9-1.1-1.6-2.3-2.2-3.6c-0.5-1.6-0.5-6.8-0.5-7.4c0-0.4,0.3-0.7,0.7-0.7&#xA;&#9;&#9;s0.7,0.3,0.7,0.7c0,2.3,0.1,4.7,0.4,7c0.5,1.1,1.2,2.2,2,3.2c1.5,2,2.3,3.4,2.3,4.3s-1,1.1-1.5,1.2&#xA;&#9;&#9;C44.1,377.2,41.4,377.5,38.6,377.4z"/>
	<path class="st2_team-work-3-81" d="M154.8,359.6c0,0-0.8,6.9,0.1,9s14.2,8,13.8,9s-23.6,0.5-24.4-0.7s-0.5-1.7-0.6-4.5s-0.7-9.8-0.7-9.8"/>
	<path class="st2_team-work-3-81" d="M161.5,378.9c-2.2,0-4.6,0-6.8-0.1c-10.2-0.4-10.7-1.1-10.9-1.4c-0.6-0.9-0.8-1.9-0.7-3c0-0.5,0-1.1,0-1.9&#xA;&#9;&#9;c-0.1-2.8-0.7-9.7-0.7-9.7c-0.1-0.4,0.2-0.7,0.6-0.8c0.4-0.1,0.7,0.2,0.8,0.6c0,0,0,0.1,0,0.1c0,0.1,0.6,6.9,0.7,9.8&#xA;&#9;&#9;c0,0.9,0,1.5,0,2c0,1.1,0,1.4,0.4,2c1.7,0.8,18.4,1.4,22.6,0.9c-1-0.7-3.1-1.9-4.9-2.8c-4.8-2.6-7.8-4.3-8.3-5.6&#xA;&#9;&#9;c-1-2.2-0.3-8.7-0.2-9.4c0-0.4,0.4-0.7,0.8-0.6c0,0,0,0,0,0c0.4,0,0.7,0.4,0.6,0.8c0,0,0,0,0,0c-0.2,1.9-0.7,7.1,0.1,8.7&#xA;&#9;&#9;c0.4,0.9,4.8,3.3,7.7,4.9c5.4,3,6.4,3.6,6.1,4.6c-0.2,0.5-0.8,0.7-1.5,0.8C165.8,378.8,163.6,378.9,161.5,378.9z"/>
	<path class="st1_team-work-3-81" d="M42.7,363H32.6c-0.4,0-0.7-0.3-0.7-0.7c0-0.4,0.3-0.7,0.7-0.7l0,0h10.1c0.4,0,0.7,0.3,0.7,0.7&#xA;&#9;&#9;C43.4,362.7,43.1,363,42.7,363C42.7,363,42.7,363,42.7,363z"/>
	<path class="st3_team-work-3-81 targetColor" d="M113.5,170.8c-3.1-1.3-6.4-2.8-9.4-2.8c-8.5,0-12.1,9.9-13.8,16.6c-4.6,17.6-6.4,36.2-9.3,54.2&#xA;&#9;&#9;c0,0,36.5,15.8,48.9,7.6l10.5-40.4l57.1,8.4c0,0,1.2-11.6,1.9-15.8c0,0-74.1-24-82.4-26.4C115.7,171.7,114.6,171.3,113.5,170.8z" style="fill: rgb(104, 225, 253);"/>
	<polygon class="st1_team-work-3-81" points="125.9,182.5 122,186.1 124,188.1 114.6,224.2 122.6,233.8 128.2,225.9 126.1,188.2 128.5,186.6 &#9;"/>
	<path class="st1_team-work-3-81" d="M120.5,170.5c-9.3,1.4-12-14.6-12.2-21.5c-0.1-1.5,0.1-3,0.6-4.5c1-2.7,3.6-4.6,6.3-5.5s5.6-1.3,8.5-1.9&#xA;&#9;&#9;c6.4-1.4,12.3-4.4,17.2-8.7c1.6-1.5,3.6-3.2,5.7-2.8c1.4,0.4,2.5,1.3,3.1,2.6c1.5,3.1,1.2,6.7-0.6,9.6c-1.8,3-4.7,4.5-7.6,6.2&#xA;&#9;&#9;c1.4,2.2,2.1,2.9,1.4,5.4c-0.7,2.4-1.8,4.6-3.3,6.6c-1.6,2-3.4,3.9-5.3,5.7c-3.9,4-7.7,7.6-13.5,8.8L120.5,170.5z"/>
	<path class="st2_team-work-3-81" d="M119.3,171.2c-1.8,0-3.5-0.7-4.9-1.8c-5.2-4.3-6.8-15.3-6.9-20.4c-0.1-1.6,0.1-3.2,0.6-4.7&#xA;&#9;&#9;c1.3-3.5,4.8-5.2,6.8-5.9c1.9-0.6,3.9-1.1,5.9-1.4c0.9-0.2,1.8-0.3,2.7-0.5c6.3-1.3,12.1-4.3,16.9-8.5c1.8-1.6,3.9-3.4,6.3-2.9&#xA;&#9;&#9;c1.6,0.4,2.9,1.5,3.6,3c1.6,3.3,1.4,7.2-0.6,10.3c-1.8,2.9-4.5,4.5-7.2,6.1c0,0.1,0.1,0.1,0.1,0.2c1.1,1.7,1.6,2.6,1,5.1&#xA;&#9;&#9;c-0.7,2.4-1.9,4.7-3.4,6.8c-1.2,1.6-2.6,3.2-4.1,4.6l-1.2,1.2c-4.1,4.2-8,7.8-13.8,8.9l-0.5,0.1l0,0&#xA;&#9;&#9;C120.2,171.2,119.8,171.3,119.3,171.2z M120.5,170.5L120.5,170.5z M146,126.2c-1.6,0-3.2,1.4-4.5,2.6c-5,4.4-11.1,7.5-17.6,8.9&#xA;&#9;&#9;c-0.9,0.2-1.8,0.4-2.7,0.5c-1.9,0.3-3.8,0.7-5.7,1.4c-2.9,1.1-5.1,2.9-5.9,5.1c-0.5,1.4-0.6,2.8-0.6,4.3c0.1,5.8,1.9,15.7,6.4,19.4&#xA;&#9;&#9;c1.4,1.2,3.2,1.7,5,1.4l0.4-0.1c5.4-1.1,9.1-4.5,13.1-8.6l1.2-1.2c1.5-1.4,2.8-2.8,4-4.4c1.4-1.9,2.5-4,3.2-6.3&#xA;&#9;&#9;c0.5-1.9,0.1-2.5-0.8-4l-0.5-0.8c-0.1-0.2-0.1-0.4-0.1-0.5c0-0.2,0.2-0.3,0.3-0.4l0.5-0.3c2.7-1.6,5.2-3,6.9-5.7&#xA;&#9;&#9;c1.7-2.7,1.9-6,0.6-8.9c-0.5-1.1-1.5-1.9-2.7-2.2C146.3,126.3,146.2,126.3,146,126.2z"/>
	<path class="st1_team-work-3-81" d="M141.7,157.1c0,0,3.4,6.8,2.4,8.1s-3.8,0-3.8,0"/>
	<path class="st2_team-work-3-81" d="M142.6,166.4c-0.9,0-1.8-0.2-2.6-0.6c-0.3-0.2-0.5-0.6-0.3-0.9c0.2-0.3,0.5-0.5,0.9-0.3c0.9,0.4,2.5,0.7,3,0.2&#xA;&#9;&#9;c0.3-0.6-0.9-4-2.5-7.3c-0.2-0.3,0-0.8,0.3-0.9c0,0,0,0,0,0c0.3-0.2,0.8,0,0.9,0.3c0,0,0,0,0,0c1.4,2.7,3.5,7.5,2.3,8.8&#xA;&#9;&#9;C144.1,166.2,143.4,166.4,142.6,166.4z"/>
	<path class="st1_team-work-3-81" d="M142.1,143c2.4,2.5,0.8,12.6,0.4,15.6c-0.5,4.2-1.2,8.4-1.9,12.6c-0.5,2.6-7.4,1.9-8.5,0.9l-0.2,10.7&#xA;&#9;&#9;c0,0-3.4,0.5-8.7-2.8s-5.2-4.6-5.2-4.6l2-12.1c0,0,4.6,0.6,7.9-4.5s4.2-13.5,4.2-13.5S139.7,140.5,142.1,143z"/>
	<path class="st2_team-work-3-81" d="M131.3,183.6c-1.3,0-4.4-0.3-8.5-2.9c-5.1-3.1-5.5-4.7-5.5-5.2l1.9-12.2c0.1-0.4,0.4-0.6,0.8-0.6c0,0,0,0,0,0&#xA;&#9;&#9;c0.2,0,4.2,0.4,7.2-4.2c3.2-4.9,4.1-13.1,4.1-13.2c0-0.2,0.1-0.4,0.3-0.5c0.8-0.5,8.1-5,10.8-2.2l0,0c2.2,2.2,1.6,9,0.7,15.4&#xA;&#9;&#9;l-0.1,0.8c-0.5,4.2-1.2,8.4-1.9,12.6c-0.2,1-0.9,1.8-1.9,2c-2.2,0.6-4.5,0.6-6.6-0.1l-0.2,9.6c0,0.3-0.3,0.6-0.6,0.7&#xA;&#9;&#9;C131.8,183.6,131.5,183.6,131.3,183.6z M118.7,175.5c0.1,0.2,0.8,1.5,4.8,4c2.3,1.5,4.9,2.5,7.7,2.7l0.2-10c0-0.3,0.2-0.5,0.4-0.6&#xA;&#9;&#9;c0.2-0.1,0.5-0.1,0.7,0.1c0.6,0.5,4.3,1.1,6.4,0.4c0.6-0.2,0.9-0.5,1-0.9c0.7-4.1,1.4-8.4,1.9-12.6l0.1-0.8&#xA;&#9;&#9;c0.4-3,1.6-12.2-0.4-14.2c-1.4-1.4-6,0.6-8.8,2.3c-0.2,1.7-1.3,8.8-4.3,13.5c-2.8,4.3-6.4,4.8-7.9,4.9L118.7,175.5z"/>
	<path class="st1_team-work-3-81" d="M140.9,168c-2.5,0.2-4.7-1.4-5.2-3.8"/>
	<path class="st2_team-work-3-81" d="M140.4,168.8c-2.6,0-4.8-1.8-5.5-4.3c-0.1-0.4,0-0.8,0.4-0.9c0.4-0.1,0.8,0,0.9,0.4c0,0,0,0.1,0,0.1&#xA;&#9;&#9;c0.5,2.1,2.4,3.5,4.5,3.3c0.4,0,0.7,0.2,0.8,0.6c0,0,0,0,0,0c0,0.4-0.2,0.7-0.6,0.8C140.8,168.8,140.6,168.8,140.4,168.8z"/>
	<path class="st1_team-work-3-81" d="M133.3,158.8c0-1.1-0.3-2.1-0.8-3c-0.3-0.8-0.8-1.5-1.3-2.1c-0.5-0.6-1.3-1-2.2-1c-0.7,0.1-1.4,0.5-1.8,1.1&#xA;&#9;&#9;c-0.4,0.6-0.7,1.3-0.8,2c-0.5,3.2,0.7,6.5,3.2,8.5l-0.2-0.3"/>
	<path class="st2_team-work-3-81" d="M129.6,165.1c-0.2,0-0.3-0.1-0.4-0.1c-2.7-2.2-4-5.7-3.5-9.2c0.1-0.8,0.4-1.6,0.9-2.3c0.5-0.8,1.4-1.3,2.3-1.4&#xA;&#9;&#9;c1.1,0,2.1,0.4,2.8,1.2c0.6,0.7,1.1,1.4,1.4,2.3c0.6,1,0.9,2.2,0.9,3.4c-0.1,0.4-0.4,0.6-0.8,0.6c-0.4-0.1-0.6-0.4-0.6-0.7&#xA;&#9;&#9;c0-0.9-0.3-1.9-0.8-2.6c-0.3-0.7-0.7-1.3-1.2-1.9c-0.4-0.5-1-0.8-1.6-0.8c-0.5,0.1-1,0.4-1.3,0.8c-0.3,0.5-0.6,1.1-0.7,1.7&#xA;&#9;&#9;c-0.4,2.7,0.5,5.5,2.5,7.4c0.2,0,0.3,0.1,0.4,0.3l0.2,0.3c0.2,0.3,0.2,0.8-0.2,1C129.9,165,129.7,165.1,129.6,165.1L129.6,165.1z"/>
	<path class="st2_team-work-3-81" d="M132.1,172.1c0,0-3.4-1.5-4.8-4.2c0,0-0.5,6.4,4.8,9L132.1,172.1z"/>
	<path class="st2_team-work-3-81" d="M132,177.6c-0.1,0-0.2,0-0.3-0.1c-5.6-2.7-5.2-9.4-5.1-9.6c0-0.3,0.3-0.6,0.6-0.6c0.3-0.1,0.6,0.1,0.8,0.4&#xA;&#9;&#9;c1.2,2.4,4.4,3.9,4.5,3.9c0.3,0.1,0.4,0.4,0.4,0.6l-0.1,4.8c0,0.2-0.1,0.5-0.3,0.6C132.3,177.6,132.1,177.6,132,177.6z&#xA;&#9;&#9; M128.1,170.2c0.3,2.2,1.5,4.2,3.2,5.5l0.1-3.1C130.2,171.9,129,171.1,128.1,170.2L128.1,170.2z"/>
	
		<ellipse transform="matrix(0.2832 -0.9591 0.9591 0.2832 -47.5039 244.2299)" class="st2_team-work-3-81" cx="139.6" cy="153.9" rx="1.5" ry="0.6"/>
	<line class="st4_team-work-3-81" x1="141" y1="152.9" x2="138.3" y2="151.1"/>
	<path class="st2_team-work-3-81" d="M141,153.6c-0.1,0-0.3,0-0.4-0.1l-2.8-1.7c-0.3-0.2-0.4-0.6-0.2-1c0.2-0.3,0.6-0.4,1-0.2l0,0l2.8,1.7&#xA;&#9;&#9;c0.3,0.2,0.4,0.6,0.2,1c0,0,0,0,0,0C141.5,153.4,141.2,153.6,141,153.6z"/>
	<path class="st2_team-work-3-81" d="M139.3,211.4c-0.1,0-0.1,0-0.2,0c-0.4-0.1-0.6-0.5-0.5-0.9c0-0.1,3.3-10.4,4.2-14.4c0.1-0.4,0.5-0.6,0.9-0.5&#xA;&#9;&#9;c0.4,0.1,0.6,0.5,0.5,0.8c-1,4-4.1,14-4.2,14.5C139.9,211.2,139.6,211.4,139.3,211.4z"/>
	<path class="st1_team-work-3-81" d="M81.1,256.8c-0.4,0-0.7-0.3-0.8-0.7c0-0.4,0.3-0.7,0.7-0.8c4.7-0.7,8.6-4.1,9.9-8.7c0.1-0.4,0.5-0.6,0.9-0.5&#xA;&#9;&#9;c0.4,0.1,0.6,0.5,0.5,0.9C90.8,252.2,86.4,256,81.1,256.8L81.1,256.8z"/>
	<path class="st1_team-work-3-81" d="M186.2,168c0,0,4.5-2.1,7.6-3.9s7.3-6.5,7.3-6.5v2c0,0.7-0.3,2.7,0.1,3.2c0.5,0.7,3.8-0.6,4.7-0.8&#xA;&#9;&#9;c1.8-0.4,3.7-0.8,5.5-1.1c0.7-0.2,1.4-0.2,2.1-0.1c0.7,0.1,1.4,0.5,1.7,1.1c0.4,0.9,0.3,1.9-0.2,2.8c-0.4,1.3-1.1,2.5-2.1,3.5&#xA;&#9;&#9;c-1.2,1.1-2.5,1.9-4,2.5l-5.1,2.3c-1.3,0.6-10.9,4.3-14.5,5.2"/>
	<path class="st2_team-work-3-81" d="M189.5,178.8c-0.3,0-0.6-0.2-0.7-0.5c-0.1-0.4,0.1-0.8,0.5-0.8c3.6-0.9,13.1-4.6,14.4-5.2l5.1-2.3&#xA;&#9;&#9;c1.4-0.5,2.7-1.3,3.8-2.3c0.8-0.9,1.5-2,1.9-3.2c0.4-1.1,0.5-1.7,0.2-2.2c-0.3-0.4-0.7-0.7-1.2-0.7c-0.6-0.1-1.3,0-1.9,0.1&#xA;&#9;&#9;c-1.8,0.3-3.7,0.7-5.5,1.1c-0.2,0-0.5,0.1-0.9,0.3c-2.4,0.7-3.9,1.1-4.6,0.2c-0.3-0.9-0.4-1.9-0.2-2.8c0-0.3,0-0.6,0-0.8v-0.3&#xA;&#9;&#9;c-1.9,2-4,3.8-6.3,5.4c-3,1.9-7.4,3.9-7.6,4c-0.4,0.2-0.8,0-0.9-0.3c-0.2-0.4,0-0.8,0.3-0.9l0,0c0.1,0,4.5-2.1,7.5-3.9&#xA;&#9;&#9;s7.1-6.4,7.2-6.4c0.2-0.2,0.5-0.3,0.8-0.2c0.3,0.1,0.5,0.4,0.4,0.6v2c0,0.3,0,0.6-0.1,0.9c-0.1,0.6-0.1,1.2,0,1.9&#xA;&#9;&#9;c1-0.1,2-0.3,3-0.7c0.4-0.1,0.8-0.2,1-0.3c1.8-0.4,3.7-0.8,5.6-1.1c0.8-0.2,1.6-0.2,2.3-0.1c0.9,0.1,1.8,0.6,2.2,1.4&#xA;&#9;&#9;c0.5,1.1,0.4,2.3-0.1,3.4c-0.5,1.4-1.2,2.6-2.2,3.7c-1.2,1.1-2.7,2-4.2,2.6l-5.1,2.3c-4.8,2-9.6,3.8-14.6,5.3L189.5,178.8z"/>
	<path class="st3_team-work-3-81 targetColor" d="M100.3,172c1.5,0.4,77-3.9,89.8-7.6l5.2,13.7c0,0-36.4,14-95,20.4C81.6,194.5,100.3,172,100.3,172z" style="fill: rgb(104, 225, 253);"/>
	<path class="st2_team-work-3-81" d="M100.3,199.2c-0.4,0-0.7-0.3-0.7-0.6c0-0.4,0.3-0.7,0.6-0.8c0.6-0.1,63.2-9.9,91.7-19.5&#xA;&#9;&#9;c0.4-0.1,0.8,0.1,0.9,0.4s-0.1,0.8-0.4,0.9C163.8,189.2,101,199.1,100.3,199.2L100.3,199.2z"/>
	<path class="st1_team-work-3-81" d="M151.9,365H144c-0.4,0-0.7-0.3-0.7-0.7s0.3-0.7,0.7-0.7h7.9c0.4,0,0.7,0.3,0.7,0.7S152.3,365,151.9,365&#xA;&#9;&#9;L151.9,365z"/>
	<path class="st1_team-work-3-81" d="M214.7,206.1c1.8,0.2,3.4,1.3,4.3,2.9c0.8,1.7,0.4,3.7-1.2,4.8c-1,0.5-2.2,0.7-3.3,0.5c-2.4-0.2-9-1.2-8.7-4.6&#xA;&#9;&#9;C206.2,206.4,212.4,205.8,214.7,206.1z"/>
	<path class="st2_team-work-3-81" d="M215.4,215c-0.3,0-0.6,0-0.9,0c-0.6-0.1-6.4-0.5-8.5-3c-0.6-0.7-0.9-1.5-0.8-2.4c0.1-1,0.6-1.9,1.4-2.4&#xA;&#9;&#9;c2.2-1.8,6.4-2,8.2-1.8l0,0c2,0.2,3.9,1.5,4.9,3.2c1,2,0.4,4.4-1.4,5.7C217.4,214.8,216.4,215,215.4,215z M213.4,206.7&#xA;&#9;&#9;c-1.8,0-4.5,0.4-5.9,1.5c-0.5,0.3-0.8,0.9-0.9,1.4c0,0.5,0.1,1,0.5,1.4c1.4,1.7,5.6,2.4,7.6,2.5c1,0.2,2,0,2.9-0.4&#xA;&#9;&#9;c1.2-0.9,1.6-2.5,0.9-3.9c-0.8-1.4-2.2-2.3-3.8-2.5C214.2,206.7,213.8,206.7,213.4,206.7L213.4,206.7z"/>
</g>
<g id="Character_Female_team-work-3-81">
	<path class="st1_team-work-3-81" d="M354.7,365.7v10.9h-34.1c0,0,13.3-6,15.8-6.8l-1.7-9.2L354.7,365.7z"/>
	<path class="st2_team-work-3-81" d="M354.7,377.3h-34.1c-0.3,0-0.6-0.2-0.6-0.5c-0.1-0.3,0.1-0.6,0.4-0.7c0.5-0.2,11.9-5.3,15.3-6.6l-1.6-8.6&#xA;&#9;&#9;c0-0.2,0-0.4,0.2-0.6c0.2-0.1,0.4-0.2,0.6-0.1l20,5c0.3,0.1,0.5,0.3,0.5,0.6v10.9C355.4,376.9,355.1,377.2,354.7,377.3&#xA;&#9;&#9;C354.7,377.3,354.7,377.3,354.7,377.3z M323.6,376h30.4v-9.8l-18.5-4.7l1.5,8.2c0.1,0.3-0.1,0.6-0.4,0.7&#xA;&#9;&#9;C334.8,371,327.6,374.2,323.6,376z"/>
	<polygon class="st1_team-work-3-81" points="443.9,356 454.5,369.7 449.3,376.7 478.2,376.7 466.2,357.4 &#9;"/>
	<path class="st2_team-work-3-81" d="M478.2,377.4h-28.9c-0.2,0-0.5-0.1-0.6-0.4c-0.1-0.2-0.1-0.5,0.1-0.7l5-6.7l-10.4-13.3&#xA;&#9;&#9;c-0.2-0.2-0.2-0.5-0.1-0.7c0.1-0.2,0.4-0.3,0.6-0.3l22.3,1.5c0.2,0,0.4,0.1,0.5,0.3l12,19.3c0.1,0.2,0.1,0.4,0,0.6&#xA;&#9;&#9;C478.7,377.3,478.4,377.4,478.2,377.4z M450.6,376.1H477L465.8,358l-20.6-1.3l9.8,12.6c0.2,0.2,0.2,0.5,0,0.8L450.6,376.1z"/>
	<path class="st2_team-work-3-81" d="M361.7,256.6c0,0-34.8,45.4-38.1,55.7c-2,6.3,10.5,51.3,10.5,51.3l20.6,2.1c0,0-3.2-40.1-0.8-46.7&#xA;&#9;&#9;s28.9-32,28.9-32l61,72.5l25.2-1.8L400,244.7L361.7,256.6z"/>
	<path class="st2_team-work-3-81" d="M354.7,366.4L354.7,366.4l-20.6-2.1c-0.3,0-0.5-0.2-0.6-0.5c-0.5-1.9-12.5-45.3-10.5-51.7&#xA;&#9;&#9;c3.3-10.3,36.8-54.1,38.2-55.9c0.1-0.1,0.2-0.2,0.4-0.2l38.3-11.9c0.3-0.1,0.6,0,0.8,0.3l69.1,113.1c0.1,0.2,0.1,0.5,0,0.7&#xA;&#9;&#9;c-0.1,0.2-0.3,0.4-0.6,0.4l-25.2,1.8c-0.2,0-0.4-0.1-0.6-0.2l-60.6-72c-3.8,3.6-26,25.3-28.2,31.2c-2.4,6.4,0.8,46,0.8,46.4&#xA;&#9;&#9;c0,0.2-0.1,0.4-0.2,0.6C355,366.3,354.9,366.4,354.7,366.4z M334.7,362.9l19.2,2c-0.5-6-3-39.9-0.7-46.1c2.5-6.7,28-31.2,29.1-32.2&#xA;&#9;&#9;c0.3-0.3,0.7-0.2,1,0c0,0,0,0,0,0l60.8,72.3l23.7-1.7l-68.2-111.7l-37.5,11.7c-2.4,3.1-34.7,45.6-37.8,55.3&#xA;&#9;&#9;C322.7,317.4,331.1,350.1,334.7,362.9L334.7,362.9z"/>
	<path class="st1_team-work-3-81" d="M337.1,172.3c0.9-2.5,2.4-4.6,4.5-6.2c1.8-1.2,3.3-0.9,5.3-1c0.8,0,1.4,1,2.2,0.9s1.9-1.5,2.7-1.9&#xA;&#9;&#9;c4.2-2.3,9.2-2.6,13.6-0.6c2.9,1.4,5.3,3.7,7.7,5.9c10.5,9.6,23.5,18.1,37.7,17.5c-6.9,12.7-17.5,23.8-30.9,29.3&#xA;&#9;&#9;c-6.5,2.7-13.5,4-20.6,3.6c-5.5-0.2-15.9-1.3-19.4-6.4c-3.2-4.8-4.6-13.8-5.4-19.4C333.5,186.7,334.4,179.2,337.1,172.3z"/>
	<path class="st2_team-work-3-81" d="M361.3,220.6c-0.7,0-1.4,0-2.1-0.1c-7.2-0.3-16.5-1.7-19.9-6.7c-3.2-4.8-4.7-13.5-5.5-19.7&#xA;&#9;&#9;c-1.1-7.5-0.2-15.1,2.6-22.1l0,0c0.8-2,2.2-4.8,4.8-6.5c1.4-0.9,3-1.3,4.6-1.1h1.1c0.5,0,1,0.2,1.5,0.6c0.2,0.2,0.4,0.3,0.6,0.3&#xA;&#9;&#9;c0.5-0.2,0.9-0.5,1.3-0.9c0.4-0.3,0.8-0.6,1.2-0.9c4.8-2.5,9.9-2.7,14.2-0.6c2.7,1.4,5.2,3.3,7.3,5.5l0.6,0.5&#xA;&#9;&#9;c13.2,12.1,25.4,17.8,37.2,17.3c0.3,0,0.5,0.1,0.6,0.3c0.1,0.2,0.1,0.5,0,0.7c-7.5,13.9-18.6,24.4-31.3,29.6&#xA;&#9;&#9;C374.2,219.3,367.8,220.5,361.3,220.6z M337.8,172.6c-2.7,6.8-3.6,14.1-2.5,21.4c0.8,6.1,2.2,14.6,5.2,19.1c2.4,3.5,9,5.6,18.8,6.1&#xA;&#9;&#9;c6.9,0.3,13.9-0.9,20.3-3.6c12-5,22.6-14.9,30-27.9h-0.2c-11.8,0-23.8-5.8-36.8-17.7l-0.6-0.5c-2-2.1-4.4-3.8-6.9-5.2&#xA;&#9;&#9;c-3.9-1.9-8.5-1.6-13,0.6c-0.3,0.2-0.6,0.4-0.9,0.7c-0.5,0.6-1.2,1-2,1.2c-0.6,0-1.2-0.2-1.6-0.5c-0.2-0.2-0.5-0.4-0.6-0.3h-1.1&#xA;&#9;&#9;c-1.3-0.2-2.7,0.1-3.8,0.9C340.3,167.8,339,169.7,337.8,172.6L337.8,172.6z"/>
	<path class="st3_team-work-3-81 targetColor" d="M390.2,199.6c-11.1-9.9-45.2-6.4-52.6,7.9s19.2,57.4,19.2,57.4l51.3-10C408.1,254.9,401.3,209.5,390.2,199.6z" style="fill: rgb(104, 225, 253);"/>
	<path class="st2_team-work-3-81" d="M352,212.5c2.2,12.5,17.1,50,17.1,50l13.8-2.7l-15.4-53.9C367.5,205.9,363.8,204.8,352,212.5z"/>
	<path class="st1_team-work-3-81" d="M351.1,203l1.4,9.8c0,0,1.9,4.3,8.3,1.8s6.7-7.1,6.7-7.1l-3.3-18.2c0,0-11-4.1-11-14.9&#xA;&#9;&#9;c-2,5.4-7.1,8.9-12.8,8.9c0,0,1.1,9.5,2.6,14.4S351.1,203,351.1,203z"/>
	<path class="st2_team-work-3-81" d="M357.2,216.1c-2.2,0.1-4.3-1.1-5.3-3c0-0.1,0-0.1,0-0.2l-1.3-9.3c-1.8-0.2-6.8-1.1-8.2-5.6&#xA;&#9;&#9;c-1.2-4.8-2.1-9.7-2.6-14.6c0-0.2,0-0.4,0.2-0.5c0.1-0.2,0.3-0.2,0.5-0.2c5.4,0,10.3-3.3,12.1-8.5c0.1-0.4,0.5-0.6,0.9-0.5&#xA;&#9;&#9;c0.3,0.1,0.5,0.4,0.5,0.7c0,10.1,10.5,14.2,10.6,14.2c0.2,0.1,0.4,0.3,0.5,0.5l3.3,18.2c0,0.1,0,0.1,0,0.2c0,0.2-0.5,5.1-7.2,7.7&#xA;&#9;&#9;C359.8,215.8,358.5,216.1,357.2,216.1z M353.2,212.6c0.3,0.5,2.1,3.4,7.3,1.4c5.5-2.1,6.2-5.9,6.3-6.5l-3.2-17.8&#xA;&#9;&#9;c-1.8-0.8-9.5-4.6-10.9-12.8c-2.4,4.2-6.7,6.8-11.5,7c0.6,4.6,1.4,9.1,2.5,13.6c1.3,4.4,7.4,4.7,7.5,4.7c0.3,0,0.6,0.3,0.7,0.6&#xA;&#9;&#9;L353.2,212.6z"/>
	<path class="st1_team-work-3-81" d="M361,189.2c0.6-5.6,9.4-5.6,7.7,0.9c-0.7,2.9-3.7,4.7-6.6,4c0,0,0,0-0.1,0"/>
	<path class="st2_team-work-3-81" d="M363.4,195c-0.5,0-1.1-0.1-1.6-0.2c-0.4-0.1-0.6-0.5-0.5-0.9c0.1-0.4,0.5-0.6,0.8-0.5c0,0,0,0,0,0&#xA;&#9;&#9;c1.1,0.3,2.4,0.2,3.4-0.4c1.2-0.7,2-1.8,2.4-3.1c0.4-1.5,0.2-2.7-0.6-3.4c-0.9-0.7-2.2-0.9-3.3-0.4c-1.4,0.5-2.3,1.8-2.4,3.2&#xA;&#9;&#9;c0,0.4-0.4,0.7-0.7,0.7c-0.4,0-0.7-0.4-0.7-0.7c0,0,0,0,0-0.1c0.2-2,1.5-3.7,3.3-4.4c1.6-0.7,3.4-0.4,4.7,0.7&#xA;&#9;&#9;c0.7,0.6,1.7,2.1,1,4.8c-0.5,1.7-1.6,3.1-3.1,3.9C365.4,194.7,364.4,195,363.4,195z"/>
	<path class="st1_team-work-3-81" d="M349,187.7c0,0-3,5.5-2,6.3s3.1,0,3.1,0"/>
	<path class="st2_team-work-3-81" d="M348.2,195.1c-0.6,0-1.2-0.2-1.7-0.5c-0.9-0.8-0.2-3.2,1.9-7.2c0.2-0.3,0.6-0.5,1-0.3c0.3,0.2,0.5,0.6,0.3,0.9&#xA;&#9;&#9;c0,0,0,0,0,0c-1.3,2.4-2.3,5-2.1,5.6c0.8,0.2,1.6,0.1,2.4-0.2c0.4-0.2,0.8,0,0.9,0.3c0.2,0.4,0,0.8-0.3,0.9c0,0-0.1,0-0.1,0&#xA;&#9;&#9;C349.7,194.9,349,195,348.2,195.1z"/>
	
		<ellipse transform="matrix(0.9969 -7.828510e-02 7.828510e-02 0.9969 -13.3114 28.2156)" class="st2_team-work-3-81" cx="353.2" cy="183.9" rx="0.9" ry="1.2"/>
	
		<ellipse transform="matrix(0.9969 -7.828510e-02 7.828510e-02 0.9969 -13.5284 27.6578)" class="st2_team-work-3-81" cx="346" cy="186.4" rx="0.9" ry="1.2"/>
	<path class="st2_team-work-3-81" d="M349.7,199c-0.6,0-1.3-0.1-1.9-0.2c-0.4-0.1-0.6-0.5-0.5-0.8c0,0,0,0,0,0c0.1-0.4,0.5-0.6,0.9-0.5&#xA;&#9;&#9;c1.4,0.4,2.9,0.2,4.1-0.5c1.2-0.9,2-2.3,2.1-3.9c0.1-0.4,0.4-0.6,0.8-0.6c0.4,0.1,0.6,0.4,0.6,0.8c-0.2,1.9-1.2,3.7-2.7,4.8&#xA;&#9;&#9;C352.1,198.7,350.9,199,349.7,199z"/>
	<path class="st2_team-work-3-81" d="M351.1,203c0,0,5.1-0.9,7.2-2.6c0,0-1,6.1-6.3,8.5L351.1,203z"/>
	<path class="st2_team-work-3-81" d="M352,209.6c-0.1,0-0.2,0-0.3-0.1c-0.2-0.1-0.3-0.3-0.4-0.5l-1-5.9c-0.1-0.4,0.2-0.7,0.6-0.8&#xA;&#9;&#9;c0,0,4.9-0.8,6.9-2.5c0.2-0.2,0.5-0.2,0.8-0.1c0.3,0.1,0.4,0.4,0.3,0.7c0,0.3-1.1,6.5-6.7,9.1C352.2,209.6,352.1,209.6,352,209.6z&#xA;&#9;&#9; M351.9,203.6l0.7,4.3c2.2-1.4,3.8-3.5,4.6-5.9C355.4,202.7,353.7,203.2,351.9,203.6L351.9,203.6z"/>
	<path class="st1_team-work-3-81" d="M377.6,209.3c-9.8,11.4-17.2,25.6-24,27.2s-41.2,0-41.2,0s-5.7-6.2-8.1-6.4s0.8,3.9,2.5,7.1&#xA;&#9;&#9;c0,0-12.5-1.3-12.5,3.2c-0.1,8.9,5,7,11.3,8.1s56.3,6.1,62.2,1.3s23.9-28.4,24.4-29.1C398,213.3,387.5,197.9,377.6,209.3z"/>
	<path class="st2_team-work-3-81" d="M351.9,252.6c-17.6,0-42.9-2.8-46.3-3.4c-1.3-0.2-2.5-0.3-3.6-0.4c-4.5-0.4-8.3-0.7-8.2-8.4&#xA;&#9;&#9;c0-0.8,0.4-1.6,1-2.2c2.4-2.1,8.4-1.9,11-1.8c-0.3-0.5-0.5-0.9-0.8-1.4c-1.6-2.6-2.4-4.1-1.8-5.1c0.3-0.4,0.8-0.6,1.3-0.6&#xA;&#9;&#9;c2.4,0.2,7.2,5.2,8.3,6.4c3.2,0.1,34.5,1.5,40.8,0c4.2-1,8.9-7.4,14.3-14.9c2.9-4,6-8.2,9.4-12.1l0,0c4.1-4.8,9-5.7,13-2.4&#xA;&#9;&#9;s5.9,10.2,2.5,14.7l-0.2,0.3c-4.4,5.7-19,24.7-24.3,28.9C366.2,252,359.9,252.6,351.9,252.6z M303.1,237.7c-2.8,0-6.1,0.3-7.5,1.5&#xA;&#9;&#9;c-0.4,0.3-0.6,0.8-0.6,1.3c-0.1,6.5,2.6,6.7,7,7.1c1.1,0.1,2.4,0.2,3.8,0.4c6.5,1.1,56,5.9,61.6,1.4c5.1-4.1,19.7-23,24-28.7&#xA;&#9;&#9;l0.2-0.3c3-3.9,1.2-10-2.3-12.9c-1.6-1.4-6-3.8-11.2,2.2l0,0c-3.4,3.9-6.4,8-9.3,12.1c-5.6,7.6-10.4,14.3-15,15.4&#xA;&#9;&#9;c-6.8,1.6-40,0.1-41.4,0c-0.2,0-0.3-0.1-0.4-0.2c-2.1-2.4-6.1-6.1-7.7-6.2c-0.1,0-0.2,0-0.2,0c0,0.4,1.1,2.4,1.9,3.7&#xA;&#9;&#9;c0.5,0.8,1,1.7,1.4,2.5c0.1,0.2,0.1,0.5,0,0.7c-0.1,0.2-0.4,0.3-0.6,0.3C305.6,237.7,304.3,237.7,303.1,237.7z M377.7,209.3&#xA;&#9;&#9;L377.7,209.3z"/>
	<path class="st2_team-work-3-81" d="M346.5,219.1c-0.4,0-0.7-0.2-0.9-0.5c-1.1-1.6,1.4-9,2.5-12.1c0.1-0.3,0.4-0.5,0.8-0.5s0.5,0.4,0.5,0.8&#xA;&#9;&#9;c0,0,0,0.1,0,0.1c-1.6,4.5-3,9.8-2.7,10.9c1.5-0.1,3.8-1.7,4.5-2.3c0.3-0.2,0.7-0.2,0.9,0.1s0.2,0.7-0.1,0.9&#xA;&#9;&#9;C351.7,216.8,348.7,219.1,346.5,219.1z M346.7,218L346.7,218z"/>
	<path class="st2_team-work-3-81" d="M370.9,209.7c-0.3,0-0.6-0.2-0.6-0.6c-0.1-0.3,0.2-0.7,0.5-0.7c0,0,0,0,0,0c0.9-0.1,3.4-0.8,4.2-2&#xA;&#9;&#9;c0.2-0.3-0.2-1.3-5-4.5c-0.5-0.3-1-0.7-1.5-1.1c-0.2-0.3-0.2-0.7,0-0.9c0.2-0.2,0.6-0.3,0.9,0c0,0,0,0,0,0c0.1,0.1,0.7,0.5,1.3,0.9&#xA;&#9;&#9;c3.5,2.3,6.5,4.5,5.4,6.3C374.8,209.1,371.1,209.7,370.9,209.7L370.9,209.7z"/>
	<path class="st1_team-work-3-81" d="M460.4,352.1c-0.2,0-0.5-0.1-0.6-0.3c-2.3-3.7-56.5-89.5-57.3-91.1c-0.1-0.4,0-0.8,0.4-0.9&#xA;&#9;&#9;c0.3-0.1,0.7,0,0.9,0.3c0.7,1.4,37.8,60.1,57.2,91c0.2,0.3,0.1,0.8-0.2,1c0,0,0,0,0,0C460.7,352,460.6,352.1,460.4,352.1z"/>
</g>
</svg>